HIERARCHY
ROOT Hips
{
 OFFSET 0.000000 0.000000 0.000000
 CHANNELS 6 Xposition Yposition Zposition Yrotation Xrotation Zrotation
 JOINT Chest
 {
  OFFSET 0.000000 9.585900 0.002600
  CHANNELS 3 Yrotation Xrotation Zrotation
  JOINT Chest2
  {
   OFFSET 0.000000 9.601200 -0.005300
   CHANNELS 3 Yrotation Xrotation Zrotation
   JOINT Chest3
   {
    OFFSET 0.000000 9.561800 0.000000
    CHANNELS 3 Yrotation Xrotation Zrotation
    JOINT Chest4
    {
     OFFSET 0.000000 9.552100 0.000000
     CHANNELS 3 Yrotation Xrotation Zrotation
     JOINT Neck
     {
      OFFSET 0.000000 14.453000 0.000000
      CHANNELS 3 Yrotation Xrotation Zrotation
      JOINT Head
      {
       OFFSET 0.000000 8.936500 -0.011300
       CHANNELS 3 Yrotation Xrotation Zrotation
       End Site
       {
        OFFSET 0.000000 17.073600 -0.006000
       }
      }
     }
     JOINT RightCollar
     {
      OFFSET -2.921100 9.558500 0.000000
      CHANNELS 3 Yrotation Xrotation Zrotation
      JOINT RightShoulder
      {
       OFFSET -13.519700 0.000000 0.000000
       CHANNELS 3 Yrotation Xrotation Zrotation
       JOINT RightElbow
       {
        OFFSET 0.000000 -29.696600 0.000000
        CHANNELS 3 Yrotation Xrotation Zrotation
        JOINT RightWrist
        {
         OFFSET 0.000000 -24.004700 0.000000
         CHANNELS 3 Yrotation Xrotation Zrotation
         End Site
         {
          OFFSET 0.000000 -17.728500 0.000000
         }
        }
       }
      }
     }
     JOINT LeftCollar
     {
      OFFSET 2.921100 9.558500 0.000000
      CHANNELS 3 Yrotation Xrotation Zrotation
      JOINT LeftShoulder
      {
       OFFSET 13.519700 0.000000 0.000000
       CHANNELS 3 Yrotation Xrotation Zrotation
       JOINT LeftElbow
       {
        OFFSET 0.000000 -29.696600 0.000000
        CHANNELS 3 Yrotation Xrotation Zrotation
        JOINT LeftWrist
        {
         OFFSET 0.000000 -24.004700 0.000000
         CHANNELS 3 Yrotation Xrotation Zrotation
         End Site
         {
          OFFSET 0.000000 -17.728500 0.000000
         }
        }
       }
      }
     }
    }
   }
  }
 }
 JOINT RightHip
 {
  OFFSET -7.771700 -0.012900 -0.001300
  CHANNELS 3 Yrotation Xrotation Zrotation
  JOINT RightKnee
  {
   OFFSET 0.000000 -40.869800 0.001200
   CHANNELS 3 Yrotation Xrotation Zrotation
   JOINT RightAnkle
   {
    OFFSET 0.000000 -39.717900 0.002100
    CHANNELS 3 Yrotation Xrotation Zrotation
    JOINT RightToe
    {
     OFFSET 0.000000 -4.965400 11.033500
     CHANNELS 3 Yrotation Xrotation Zrotation
     End Site
     {
      OFFSET 0.000000 -1.423100 5.872300
     }
    }
   }
  }
 }
 JOINT LeftHip
 {
  OFFSET 7.771700 -0.012900 -0.001300
  CHANNELS 3 Yrotation Xrotation Zrotation
  JOINT LeftKnee
  {
   OFFSET 0.000000 -40.869800 0.001200
   CHANNELS 3 Yrotation Xrotation Zrotation
   JOINT LeftAnkle
   {
    OFFSET 0.000000 -39.717900 0.002100
    CHANNELS 3 Yrotation Xrotation Zrotation
    JOINT LeftToe
    {
     OFFSET 0.000000 -4.965400 11.033500
     CHANNELS 3 Yrotation Xrotation Zrotation
     End Site
     {
      OFFSET 0.000000 -1.423100 5.872300
     }
    }
   }
  }
 }
}
MOTION
Frames: 7
Frame Time: 0.008333
-191.833196 58.068462 28.869201 171.352881 -48.916589 -3.400062 5.295171 21.972564 3.400580 2.761948 12.607603 1.727795 3.528776 15.728696 2.278088 2.758460 12.600556 1.730626 0.683933 15.363910 2.100804 0.498641 -7.269382 3.683967 2.016893 3.190760 0.359203 5.505574 -13.050206 -12.432475 -102.824566 -74.931782 138.474227 9.403376 6.756707 -24.508106 -10.668071 0.501947 -1.231371 -2.793443 -10.869604 17.589929 67.888092 -61.683521 -112.302055 -4.828006 -5.023679 13.678301 3.596786 -23.629403 0.682721 -37.120934 73.066779 -38.398609 6.189520 -12.228967 9.128254 0.020777 -0.160002 0.021515 -2.083690 -22.180628 12.371724 53.321453 79.387869 53.120760 4.466520 -16.072098 -16.437329 0.064659 0.119378 0.024695
-191.833910 58.067887 28.868020 171.354388 -48.910346 -3.401524 5.295926 21.974539 3.398884 2.762984 12.602278 1.728180 3.530313 15.733527 2.276399 2.759752 12.600371 1.729783 0.696264 15.369370 2.087309 0.514994 -7.260713 3.662630 2.015339 3.185057 0.360947 5.505147 -13.045008 -12.439802 -102.819954 -74.921820 138.473910 9.406746 6.757134 -24.512653 -10.664679 0.490688 -1.231852 -2.799405 -10.858124 17.591674 67.881608 -61.688095 -112.300979 -4.832182 -5.027552 13.681428 3.600901 -23.636409 0.677322 -37.117602 73.072710 -38.389900 6.189520 -12.231730 9.126021 0.019120 -0.160167 0.022141 -2.084393 -22.188750 12.372679 53.334049 79.393292 53.134976 4.467776 -16.074512 -16.438266 0.066267 0.117782 0.026168
-191.833604 58.067865 28.866234 171.359413 -48.909587 -3.410102 5.310875 21.982936 3.401781 2.753273 12.593472 1.734419 3.536035 15.735484 2.274338 2.780648 12.616776 1.720588 0.693394 15.371992 2.088595 0.528110 -7.241328 3.644768 1.993311 3.165801 0.375516 5.501914 -13.045338 -12.438919 -102.817824 -74.916601 138.474344 9.413178 6.758484 -24.512489 -10.684540 0.470452 -1.212414 -2.812996 -10.856335 17.592360 67.867316 -61.688219 -112.278549 -4.825377 -5.034049 13.674646 3.596231 -23.637148 0.683011 -37.118545 73.078173 -38.387775 6.180639 -12.235983 9.120314 0.014648 -0.159458 0.022047 -2.088083 -22.191134 12.378070 53.320805 79.406450 53.124577 4.480744 -16.077962 -16.438445 0.064151 0.116542 0.025760
-191.832989 58.067520 28.864469 171.360227 -48.907997 -3.416842 5.322176 21.986464 3.407219 2.759946 12.596656 1.735046 3.549687 15.744516 2.272125 2.778750 12.612838 1.727282 0.698121 15.388426 2.080685 0.540248 -7.211093 3.628030 1.984355 3.160197 0.375285 5.493258 -13.055532 -12.432386 -102.820945 -74.912073 138.479249 9.419306 6.760529 -24.509538 -10.694580 0.460743 -1.200452 -2.824102 -10.865302 17.596604 67.867462 -61.679156 -112.273118 -4.834506 -5.041226 13.664002 3.594233 -23.638530 0.691955 -37.087753 73.085707 -38.357267 6.161991 -12.237220 9.118405 0.021522 -0.159050 0.021351 -2.090603 -22.193181 12.384843 53.327047 79.410706 53.133205 4.483921 -16.080928 -16.441281 0.062172 0.116533 0.026844
-191.832528 58.066728 28.862744 171.357477 -48.904781 -3.420144 5.334174 21.989841 3.412391 2.776927 12.608265 1.732508 3.538093 15.729932 2.278937 2.791056 12.624645 1.727769 0.702946 15.410685 2.072581 0.552776 -7.170018 3.610787 1.969028 3.143363 0.379560 5.495411 -13.053093 -12.430665 -102.832912 -74.910640 138.496603 9.422822 6.760569 -24.513240 -10.704276 0.444877 -1.193382 -2.833620 -10.867938 17.602408 67.880161 -61.675719 -112.279653 -4.840899 -5.044396 13.655071 3.600438 -23.644220 0.699072 -37.090957 73.089614 -38.357140 6.149533 -12.235231 9.119431 0.031018 -0.161900 0.018998 -2.089906 -22.198328 12.389999 53.346518 79.414299 53.156474 4.487144 -16.081960 -16.445543 0.058935 0.114824 0.028056
-191.831400 58.065863 28.860917 171.357644 -48.902643 -3.430281 5.346352 21.995304 3.424324 2.781048 12.611166 1.733824 3.559732 15.748996 2.279854 2.781148 12.611119 1.733906 0.698333 15.412901 2.070947 0.578805 -7.096383 3.583852 1.955115 3.124646 0.379753 5.489555 -13.050890 -12.431477 -102.841879 -74.904963 138.523320 9.424587 6.756472 -24.522191 -10.713070 0.427151 -1.187860 -2.837165 -10.878497 17.608073 67.884100 -61.673064 -112.285919 -4.839279 -5.041442 13.651343 3.599977 -23.647555 0.708513 -37.088215 73.093674 -38.352575 6.159291 -12.238525 9.119504 0.017606 -0.162985 0.016145 -2.091976 -22.201730 12.400327 53.350476 79.420920 53.165877 4.493045 -16.085801 -16.450010 0.065241 0.114466 0.029120
-191.832319 58.064851 28.858508 171.363350 -48.901265 -3.433277 5.352613 22.003088 3.424661 2.784481 12.614514 1.734908 3.564145 15.753139 2.281446 2.776244 12.602850 1.737593 0.701695 15.426233 2.066827 0.611079 -7.019015 3.557281 1.952199 3.117908 0.373596 5.484328 -13.052396 -12.426590 -102.852838 -74.901059 138.534520 9.431502 6.750124 -24.513782 -10.717752 0.418153 -1.184546 -2.837537 -10.898884 17.626602 67.885700 -61.651402 -112.287770 -4.839026 -5.036853 13.644855 3.598239 -23.648905 0.707067 -37.100547 73.098377 -38.363690 6.147457 -12.244467 9.122309 0.026535 -0.161114 0.014585 -2.090331 -22.202635 12.396826 53.337519 79.427162 53.159969 4.491345 -16.093478 -16.452861 0.065468 0.117232 0.030841
